<svg width="100" height="100" viewBox="0 0 100 100" fill="none" xmlns="http://www.w3.org/2000/svg">
<path fill-rule="evenodd" clip-rule="evenodd" d="M57.0828 70.9948C38.9329 70.9948 24.2196 59.0136 24.2196 44.234C24.2196 29.4544 38.9329 17.4731 57.0828 17.4731C75.2327 17.4731 89.9461 29.4544 89.9461 44.234C89.9461 50.1843 87.5612 55.681 83.5274 60.1249C83.1013 60.5943 83.1806 61.3412 83.7266 61.6632C86.1321 63.0821 88.7292 64.1391 91.4479 64.8056C92.4568 65.0529 92.6122 66.5127 91.6181 66.8141C85.6061 68.637 79.2056 69.07 73.17 67.7908C72.96 67.7463 72.7415 67.7682 72.5446 67.8539C67.9362 69.8584 62.6725 70.9948 57.0828 70.9948Z" fill="url(#paint0_linear_113_1546)"/>
<circle cx="4.45508" cy="4.45508" r="4.45508" transform="matrix(-1 0 0 1 59.9609 33)" fill="white"/>
<circle cx="4.45508" cy="4.45508" r="4.45508" transform="matrix(-1 0 0 1 48.0508 33)" fill="white"/>
<g filter="url(#filter0_b_113_1546)">
<path fill-rule="evenodd" clip-rule="evenodd" d="M34.6164 88.4282C48.6136 88.4282 59.9606 79.1883 59.9606 67.7903C59.9606 56.3923 48.6136 47.1523 34.6164 47.1523C20.6192 47.1523 9.27226 56.3923 9.27226 67.7903C9.27226 72.3795 11.1118 76.6189 14.2231 80.0462C14.5518 80.4082 14.4906 80.9843 14.0694 81.2326C12.2145 82.3265 10.2119 83.1414 8.11554 83.6552C7.33744 83.8459 7.21759 84.9718 7.98426 85.2042C12.6203 86.6098 17.5557 86.9436 22.2099 85.9573C22.3719 85.923 22.5404 85.9399 22.6922 86.0059C26.2462 87.5518 30.3056 88.4282 34.6164 88.4282Z" fill="#DAEAD9" fill-opacity="0.85"/>
<circle cx="33.4358" cy="60.4358" r="3.43576" fill="white"/>
<circle cx="42.6213" cy="60.4358" r="3.43576" fill="white"/>
</g>
<defs>
<filter id="filter0_b_113_1546" x="-6.5332" y="33.1523" width="80.4941" height="69.2759" filterUnits="userSpaceOnUse" color-interpolation-filters="sRGB">
<feFlood flood-opacity="0" result="BackgroundImageFix"/>
<feGaussianBlur in="BackgroundImageFix" stdDeviation="7"/>
<feComposite in2="SourceAlpha" operator="in" result="effect1_backgroundBlur_113_1546"/>
<feBlend mode="normal" in="SourceGraphic" in2="effect1_backgroundBlur_113_1546" result="shape"/>
</filter>
<linearGradient id="paint0_linear_113_1546" x1="58.2543" y1="17.4731" x2="45.9853" y2="69.486" gradientUnits="userSpaceOnUse">
<stop stop-color="#D9DBDE"/>
<stop offset="1" stop-color="#A8AAAE"/>
</linearGradient>
</defs>
</svg>
