<svg width="425" height="495" viewBox="0 0 425 495" fill="none" xmlns="http://www.w3.org/2000/svg">
<path d="M131 254.663L134.318 267.049M225.626 156.269C278.74 156.269 321.798 199.326 321.798 252.441C321.798 305.555 302.783 364.642 249.669 364.642C209.821 364.642 162.102 331.387 140.749 292.346C139.671 292.457 138.576 292.513 137.468 292.513C119.763 292.513 105.41 278.16 105.41 260.455C105.41 244.481 117.095 231.235 132.383 228.799C142.917 187.116 180.669 156.269 225.626 156.269Z" stroke="black" stroke-width="8.01436" stroke-linecap="round" stroke-linejoin="round"/>
<path d="M268.012 243.139L277.346 277.974" stroke="black" stroke-width="5.34291" stroke-linecap="round" stroke-linejoin="round"/>
<path fill-rule="evenodd" clip-rule="evenodd" d="M225.625 308.941C240.607 307.647 251.827 306.311 259.285 304.933C266.744 303.556 276.495 301.018 288.538 297.32L279.722 316.955C270.583 320.065 263.771 321.802 259.285 322.164C254.8 322.527 248.388 321.859 240.051 320.161L225.625 308.941Z" stroke="black" stroke-width="5.34291" stroke-linecap="round" stroke-linejoin="round"/>
<path fill-rule="evenodd" clip-rule="evenodd" d="M240.858 207.561C243.204 207.561 245.315 209.174 246.781 211.745L244.064 217.178L248.62 217.178C248.785 218.203 248.872 219.277 248.872 220.384C248.872 227.466 245.284 233.207 240.858 233.207C236.432 233.207 232.844 227.466 232.844 220.384C232.844 213.302 236.432 207.561 240.858 207.561ZM296.157 207.561C298.503 207.561 300.614 209.174 302.08 211.745L299.363 217.178L303.919 217.178C304.084 218.203 304.172 219.277 304.172 220.384C304.172 227.466 300.583 233.207 296.157 233.207C291.731 233.207 288.143 227.466 288.143 220.384C288.143 213.302 291.731 207.561 296.157 207.561Z" fill="black"/>
<path d="M213.604 189.521C213.604 189.521 222.91 190.568 244.058 198.336C245.646 198.92 248.584 200.79 252.874 203.946" stroke="black" stroke-width="8.01436" stroke-linecap="round" stroke-linejoin="round"/>
<path d="M323.4 189.52C323.4 189.52 314.094 190.567 292.946 198.336C291.358 198.919 288.419 200.789 284.13 203.946" stroke="black" stroke-width="8.01436" stroke-linecap="round" stroke-linejoin="round"/>
<path fill-rule="evenodd" clip-rule="evenodd" d="M325.404 120.406C332.258 131.425 343.104 139.161 349.447 150.26C359.421 167.714 360.297 189.775 360.266 216.379C360.253 227.606 366.154 237.912 365.476 244.83C363.524 264.727 356.996 268.312 360.266 278.089C363.205 286.873 369.884 290.346 380.302 288.508C364.913 302.065 352.223 310.079 342.234 312.551C332.245 315.022 318.888 316.209 302.162 316.11C313.917 301.43 321.664 282.378 325.404 258.954C327.885 243.413 320.441 224.369 318.592 216.231C315.386 202.124 294.949 196.667 281.325 188.282C272.242 182.692 265.831 174.84 262.091 164.725C260.861 163.966 256.682 172.082 244.058 184.289C235.642 192.428 225.491 197.485 213.604 199.462C221.618 189.347 226.293 181.228 227.629 175.106C228.965 168.984 227.362 160.732 222.82 150.351C223.622 162.596 221.752 173.11 217.21 181.894C212.669 190.678 204.654 197.732 193.167 203.055C196.767 197.612 198.37 190.558 197.976 181.894C197.619 174.058 195.615 165.008 191.965 154.743C191.459 170.893 190.524 182.472 189.16 189.48C185.913 206.155 147.084 254.162 155.5 266.141C161.11 274.126 170.994 278.109 185.153 278.089C176.337 285.035 168.323 289.843 161.11 292.515C150.29 296.522 126.65 293.649 137.467 296.589C141.247 304.899 142.399 305.831 147.435 311.362C152.396 316.81 113.023 322.541 86.576 314.955C68.9445 309.898 57.0565 302.311 50.9121 292.197C60.261 294.518 64.001 294.518 62.1322 292.197C59.4522 288.867 53.3079 283.011 43.6992 274.629C56.7689 278.28 65.0504 277.348 68.5437 271.834C75.4438 260.941 68.4271 237.945 68.5437 227.81C68.6607 217.65 77.0403 204.797 81.7674 189.48C85.06 178.812 84.6358 164.777 86.576 158.736C96.1933 128.79 113.503 114.729 129.453 103.636C139.437 96.6927 147.485 76.8849 169.925 68.5001C192.366 60.1154 201.961 68.5001 217.611 68.5001C224.621 68.5001 232.059 64.1674 238.448 64.9071C281.725 69.9177 310.041 95.704 325.404 120.406Z" fill="black" stroke="black" stroke-width="4.00718" stroke-linecap="round" stroke-linejoin="round"/>
<path fill-rule="evenodd" clip-rule="evenodd" d="M125.045 292.914C127.984 299.592 130.922 301.996 133.861 300.126C138.269 297.321 132.933 286.287 132.933 283.82C132.933 281.354 136.24 279.999 137.843 281.35C139.446 282.701 140.973 286.659 141.875 291.711C143.879 302.931 138.669 307.74 132.659 308.141C126.25 308.568 121.307 302.424 117.832 289.708L125.045 292.914Z" fill="#FFC300" stroke="black" stroke-width="2.67145" stroke-linecap="round" stroke-linejoin="round"/>
<path d="M312.68 260.463L314.619 268.239M209.497 260.463L207.559 268.239L209.497 260.463ZM217.512 260.463L215.573 268.239L217.512 260.463ZM225.526 260.463L223.587 268.239L225.526 260.463ZM328.709 260.463L330.648 268.239L328.709 260.463ZM320.694 260.463L322.633 268.239L320.694 260.463Z" stroke="black" stroke-width="4.00718" stroke-linecap="round" stroke-linejoin="round"/>
<path d="M54.8068 483.739H44.17L56.1896 397.794H71.6129C80.2641 397.794 86.6107 399.957 90.6526 404.283C94.6946 408.537 96.2192 414.458 95.2264 422.046C94.5173 427.223 92.4963 431.655 89.1635 435.342C85.9015 438.958 81.6823 441.547 76.5058 443.107L88.8444 483.739H77.4631L66.1881 444.702C65.9045 444.702 65.5854 444.702 65.2308 444.702H60.2315L54.8068 483.739ZM71.1874 407.793H65.4435L61.7207 434.597H65.2308C71.1165 434.526 75.5484 433.285 78.5267 430.874C81.505 428.393 83.2778 424.989 83.8451 420.663C84.4124 416.692 83.5969 413.572 81.3987 411.303C79.2004 408.963 75.7966 407.793 71.1874 407.793ZM131.048 483.739H121.262L121.794 477.889C120.234 480.016 118.461 481.683 116.476 482.888C114.561 484.165 112.54 484.803 110.413 484.803C107.009 484.803 104.066 483.668 101.584 481.399C99.1734 479.13 97.507 475.442 96.5851 470.337C95.6633 465.16 95.8051 458.282 97.0106 449.702C98.4997 438.923 101.194 430.945 105.095 425.769C109.066 420.521 113.639 417.898 118.816 417.898C123.567 417.898 127.006 420.06 129.134 424.386L129.878 418.855H140.196L131.048 483.739ZM107.541 450.872C106.974 455.41 106.655 459.523 106.584 463.21C106.584 466.898 107.08 469.84 108.073 472.039C109.066 474.166 110.767 475.23 113.178 475.23C114.88 475.23 116.405 474.627 117.752 473.421C119.17 472.145 120.376 470.514 121.369 468.529C122.361 466.543 123.142 464.451 123.709 462.253L127.113 438.533C127.183 435.271 126.545 432.612 125.198 430.555C123.922 428.499 122.113 427.471 119.773 427.471C117.575 427.471 115.66 428.534 114.029 430.662C112.398 432.789 111.051 435.626 109.987 439.171C108.924 442.717 108.108 446.617 107.541 450.872ZM151.373 483.739H141.693L154.351 394.39H164.669L160.52 423.429C163.569 419.67 167.292 417.791 171.689 417.791C177.078 417.791 180.978 420.557 183.389 426.088C185.8 431.548 186.403 439.632 185.198 450.34C184.417 457.005 183.035 462.962 181.049 468.209C179.135 473.386 176.617 477.463 173.497 480.442C170.448 483.349 166.867 484.803 162.754 484.803C158.003 484.803 154.599 482.64 152.543 478.314L151.373 483.739ZM168.711 427.364C166.3 427.364 164.208 428.286 162.435 430.13C160.733 431.974 159.457 434.42 158.606 437.469L154.776 463.742C154.635 467.075 155.202 469.84 156.478 472.039C157.826 474.166 159.669 475.23 162.009 475.23C164.42 475.23 166.406 474.131 167.966 471.932C169.597 469.734 170.944 466.827 172.008 463.21C173.072 459.594 173.887 455.658 174.454 451.403C175.164 446.652 175.447 442.469 175.305 438.852C175.234 435.236 174.667 432.435 173.603 430.449C172.611 428.393 170.98 427.364 168.711 427.364ZM215.217 464.912L220.961 428.215H214.047L215.43 418.855H222.45L225.216 400.985H235.002L232.342 418.855H244.362L242.979 428.215H230.853L225.535 463.742C224.968 467.642 224.932 470.55 225.429 472.464C225.996 474.308 227.272 475.23 229.258 475.23C230.96 475.23 232.768 474.556 234.682 473.209L237.98 481.931C235.782 482.924 233.477 483.704 231.066 484.271C228.726 484.838 226.457 484.98 224.258 484.696C222.06 484.413 220.146 483.562 218.515 482.144C216.955 480.796 215.82 478.74 215.111 475.974C214.473 473.138 214.508 469.45 215.217 464.912ZM252.25 483.739H241.932L254.59 394.39H264.907L260.653 424.386C262.426 422.259 264.376 420.77 266.503 419.919C268.701 418.997 270.722 418.536 272.566 418.536C275.119 418.536 277.388 419.139 279.373 420.344C281.43 421.55 282.954 423.535 283.947 426.301C284.94 429.066 285.082 432.825 284.373 437.576L277.884 483.845H267.354L273.63 439.278C274.693 431.761 272.85 428.003 268.099 428.003C263.347 428.003 260.192 431.619 258.632 438.852L252.25 483.739ZM322.077 418.855H332.395L323.141 483.739H313.462L313.994 477.463C312.221 480.087 310.235 481.966 308.037 483.101C305.91 484.236 303.818 484.803 301.761 484.803C299.208 484.803 296.904 484.165 294.847 482.888C292.862 481.683 291.408 479.697 290.486 476.932C289.565 474.095 289.423 470.337 290.061 465.657L296.656 418.855H307.08L300.591 463.955C299.528 471.471 301.336 475.23 306.016 475.23C308.285 475.23 310.271 474.166 311.973 472.039C313.674 469.911 314.915 467.181 315.695 463.848L322.077 418.855ZM370.479 483.739H360.693L361.225 477.889C359.665 480.016 357.892 481.683 355.907 482.888C353.992 484.165 351.971 484.803 349.844 484.803C346.44 484.803 343.497 483.668 341.015 481.399C338.604 479.13 336.938 475.442 336.016 470.337C335.094 465.16 335.236 458.282 336.441 449.702C337.93 438.923 340.625 430.945 344.525 425.769C348.496 420.521 353.07 417.898 358.247 417.898C362.998 417.898 366.437 420.06 368.564 424.386L369.309 418.855H379.626L370.479 483.739ZM346.972 450.872C346.404 455.41 346.085 459.523 346.014 463.21C346.014 466.898 346.511 469.84 347.503 472.039C348.496 474.166 350.198 475.23 352.609 475.23C354.311 475.23 355.836 474.627 357.183 473.421C358.601 472.145 359.807 470.514 360.799 468.529C361.792 466.543 362.572 464.451 363.139 462.253L366.543 438.533C366.614 435.271 365.976 432.612 364.629 430.555C363.352 428.499 361.544 427.471 359.204 427.471C357.006 427.471 355.091 428.534 353.46 430.662C351.829 432.789 350.482 435.626 349.418 439.171C348.354 442.717 347.539 446.617 346.972 450.872Z" fill="black"/>
<path d="M205.831 411.835C203.846 411.835 202.356 411.161 201.364 409.814C200.371 408.466 200.016 406.729 200.3 404.602C200.655 402.545 201.435 400.843 202.64 399.496C203.846 398.078 205.547 397.369 207.746 397.369C209.802 397.369 211.327 398.078 212.32 399.496C213.312 400.843 213.631 402.545 213.277 404.602C212.993 406.729 212.213 408.466 210.937 409.814C209.731 411.161 208.029 411.835 205.831 411.835ZM200.726 483.739H190.408L199.555 418.855H209.873L200.726 483.739Z" fill="#FFC300"/>
</svg>
