<svg width="95" height="95" viewBox="0 0 95 95" fill="none" xmlns="http://www.w3.org/2000/svg">
<path fill-rule="evenodd" clip-rule="evenodd" d="M94.0141 47.007C94.0141 72.9683 72.9683 94.0141 47.007 94.0141C21.0458 94.0141 -2.38149e-06 72.9683 0 47.007C1.55559e-06 21.0458 21.0458 2.98703e-07 47.007 0C72.9683 -1.12461e-06 94.0141 21.0458 94.0141 47.007ZM42.2862 37.0668L9.54814 31.5828C9.9082 36.5129 13.2706 47.1043 23.8399 50.0291C34.4091 52.9539 40.5413 42.6062 42.2862 37.0668ZM84.4968 31.5827L51.7588 37.0668C53.5037 42.6062 59.6358 52.9539 70.2051 50.0291C80.7743 47.1042 84.1368 36.5128 84.4968 31.5827Z" fill="black" fill-opacity="0.1"/>
</svg>
